<?xml version="1.0" encoding="utf-8"?>
<!-- Generator: Adobe Illustrator 19.0.0, SVG Export Plug-In . SVG Version: 6.00 Build 0)  -->
<svg version="1.1" id="Camada_1" xmlns="http://www.w3.org/2000/svg" xmlns:xlink="http://www.w3.org/1999/xlink" x="0px" y="0px"
	 viewBox="0 0 372 172" style="enable-background:new 0 0 372 172;" xml:space="preserve">
<style type="text/css">
	.st0{fill:none;stroke:#000000;stroke-width:2;stroke-miterlimit:10;}
</style>
<g id="XMLID_1_">
	<g id="XMLID_33_">
		<path id="XMLID_48_" d="M35.7,93.1c-0.2,0.1-0.4,0.2-0.5,0.2c-0.1,0-0.1,0.1-0.2,0.1c-0.7,0.3-1,0.5-1.6,0.9c-0.1,0-0.1,0-0.1,0.1
			c-0.4,0.3-0.8,0.5-1.2,0.7c-0.3,0.1-0.5,0.2-0.8,0.3c-0.1,0-0.1,0.1-0.2,0.1c-0.4,0.2-0.8,0.3-1.1,0.5c-0.3,0.1-0.5,0.2-0.8,0.3
			c-0.1,0-0.2,0-0.2,0c-0.3,0.1-0.6,0-0.8,0.1c-0.1-0.1-0.2-0.1-0.3-0.2c-0.3-0.3-0.4-0.6-0.4-0.9c0-0.3,0-0.7,0.2-1
			c0.2-0.5,0.4-1.1,0.5-1.6c0.1-0.7,0.1-1.4-0.3-2c-0.2-0.4-0.3-0.7-0.6-1c0-0.1,0-0.1-0.1-0.2c-0.1-0.2-0.3-0.5-0.5-0.8
			c-0.3-0.4-0.5-0.9-0.7-1.4c0,0,0,0,0,0c-0.2-0.4-0.3-0.7-0.5-1c-0.5-0.9-0.7-1.4-1.2-2.3c-0.2-0.3-0.3-0.7-0.5-1
			c-0.7-1.3-1-1.9-1.7-3.2c-0.1-0.1-0.1-0.2-0.2-0.3c-0.1-0.1-0.1-0.2-0.2-0.4c-0.1-0.3-0.3-0.5-0.5-0.7c0-0.1-0.1-0.1-0.1-0.2
			c-0.7-1.2-1-1.8-1.6-3.1c-0.1-0.1-0.1-0.2-0.2-0.3c0-0.1,0-0.2-0.1-0.3c-0.2-0.4-0.4-0.7-0.6-1c0-0.1-0.1-0.1-0.1-0.2
			c-0.2-0.5-0.4-0.7-0.6-1.2c-0.3-0.5-0.6-1.1-0.9-1.5c-0.4-0.6-0.7-1.3-1.1-1.9c-0.2-0.3-0.4-0.6-0.5-0.8c-0.1-0.2-0.1-0.2-0.2-0.4
			c-0.8-1.5-1.2-2.3-2.1-3.9c-0.1-0.2-0.2-0.3-0.3-0.4c-0.1-0.1-0.1-0.2-0.1-0.3c-0.2-0.3-0.3-0.5-0.5-0.9c-0.1-0.2-0.2-0.3-0.3-0.4
			c-0.1-0.1-0.1-0.1-0.1-0.2c-0.2-0.3-0.2-0.5-0.4-0.8c-0.2-0.4-0.5-0.8-0.7-1c-0.3-0.4-0.7-0.7-1.2-0.9c-0.3-0.1-0.6-0.2-1-0.2
			c-0.4,0-0.9-0.1-1.3-0.2c-0.3,0-0.6-0.1-0.8-0.2C6,58,5.8,57.9,5.7,57.7c0,0,0-0.1-0.1-0.1c-0.2-0.3-0.1-0.6,0-0.8
			c0.2-0.3,0.5-0.6,0.8-0.8c0.5-0.4,1.1-0.7,1.7-1c0.2-0.1,0.4-0.2,0.5-0.3c0.2-0.2,0.6-0.4,0.8-0.5c0.2-0.1,0.4-0.2,0.5-0.3
			c0,0,0,0,0.1,0c0.4-0.2,0.7-0.5,1.1-0.7c0.2-0.1,0.4-0.2,0.6-0.4c0.1-0.1,0.2-0.1,0.3-0.1c0.6-0.3,1.1-0.6,1.6-0.8
			c0.2-0.1,0.5-0.2,0.7-0.2c0.2-0.1,0.5-0.3,0.8-0.3c0.3-0.1,0.6-0.2,0.8-0.4c0.2-0.1,0.4-0.2,0.6-0.3c0.5-0.3,1.1-0.5,1.6-0.8
			c0.5-0.3,1.2-0.7,1.7-0.9c0.1,0,0.4-0.1,0.6-0.2c0.4-0.2,0.7-0.3,1.1-0.4c0.2,0,0.4-0.1,0.6-0.1c0.2,0,0.5,0,0.7,0
			c0.2,0.1,0.4,0.3,0.5,0.5c0.1,0.3,0.1,0.7,0,1c-0.2,0.5-0.4,0.9-0.6,1.4c-0.2,0.4-0.3,0.9-0.3,1.4c0,0.3,0,0.6,0.1,0.8
			c0.2,0.6,0.4,1,0.6,1.5c0,0,0,0,0,0.1c0.2,0.5,0.4,0.9,0.6,1.3c0.3,0.5,0.4,0.8,0.6,1.3c0.1,0.2,0.1,0.3,0.2,0.3
			c0.1,0.1,0.1,0.2,0.2,0.4c0.5,1.1,0.8,1.7,1.4,2.8c0.2,0.3,0.3,0.6,0.5,0.8s0.4,0.5,0.7,0.7c0.2,0.1,0.4,0.1,0.6,0
			c0.2-0.1,0.4-0.2,0.5-0.4c0.2-0.3,0.4-0.6,0.4-1c0.2-0.5,0.4-1,0.5-1.4c0.2-0.8,0.5-1.6,0.8-2.4c0.2-0.5,0.3-0.8,0.5-1.3
			c0.1-0.4,0.2-0.7,0.3-1.1c0.1-0.3,0.1-0.5,0.2-0.9c0.1-0.5,0.3-1,0.4-1.4c0.1-0.4,0.3-0.7,0.4-1.2c0.2-0.7,0.4-1.3,0.6-1.9
			c0.2-0.4,0.3-0.9,0.4-1.4c0.1-0.2,0.2-0.5,0.3-0.8c0.1-0.5,0.3-1,0.4-1.4c0.1-0.3,0.1-0.5,0.1-0.8c0-0.5,0-0.7,0-1.2
			c0-0.4,0.1-0.7,0.2-1c0.1-0.2,0.4-0.5,0.6-0.6c0.1-0.1,0.3-0.2,0.5-0.3c0.1-0.1,0.3-0.2,0.4-0.3c1.1-0.5,1.7-0.7,2.9-1.2
			c0.2-0.1,0.3-0.1,0.4-0.3c0.1,0,0.1,0,0.2-0.1c0.8-0.3,1.2-0.5,2-0.8c0.4-0.1,0.8-0.2,1.1-0.4c0.3-0.1,0.7-0.2,1.1-0.4
			c0.7-0.3,1.1-0.4,1.8-0.7c0.2-0.1,0.3-0.1,0.4-0.2c0.1,0,0.1-0.1,0.2-0.1c1-0.4,1.4-0.6,2.4-1c0.2-0.1,0.3-0.1,0.4-0.1
			c0,0,0.1,0,0.1,0c0.4-0.1,0.8-0.2,1.2-0.4c0,0,0.1,0,0.1,0c0.4-0.1,0.9-0.2,1.4-0.3c0.3,0,0.5,0,0.8,0.1c0.4,0.1,0.6,0.5,0.6,1
			c0,0.3-0.1,0.5-0.2,0.7c-0.2,0.3-0.2,0.5-0.4,0.8c-0.4,0.6-0.6,0.9-1,1.6c-0.2,0.3-0.3,0.4-0.4,0.7c-0.4,0.6-0.8,1.3-1,2.1
			c-0.1,0.4-0.3,0.8-0.4,1.2c-0.1,0.3-0.2,0.7-0.4,1.1c-0.1,0.2-0.2,0.4-0.3,0.6c-0.2,0.3-0.3,0.6-0.4,0.9c-0.1,0,0,0.1-0.1,0.1
			c-0.2,0.6-0.4,1.1-0.6,1.6c0,0.1,0,0.1-0.1,0.1c-0.2,0.7-0.4,1-0.6,1.7c-0.2,0.6-0.4,1.1-0.7,1.6c-0.2,0.5-0.4,1.1-0.6,1.5
			c-0.2,0.5-0.3,0.8-0.5,1.3c-0.1,0.3-0.2,0.4-0.3,0.7c-0.4,1.1-0.6,1.6-1,2.7c-0.1,0.1-0.2,0.3-0.2,0.4c-0.1,0.3-0.1,0.4-0.2,0.7
			c0,0.2-0.1,0.4-0.1,0.7c0,0.3,0,0.5,0,0.7c0.1,0.3,0.2,0.5,0.4,0.8c0.2,0.2,0.4,0.5,0.7,0.7c0,0.1,0.1,0.1,0.1,0.1
			c0.3,0.2,0.6,0.4,0.8,0.6c0.1,0.1,0.2,0.1,0.3,0.2c0.2,0.1,0.5,0.2,0.6,0.4c0,0.1,0,0.1,0.1,0.1c0.8,0.5,1.5,1.1,2.3,1.6
			c0.4,0.3,0.8,0.5,1.2,0.8c0.3,0.2,0.7,0.5,1,0.8c0,0,0,0,0,0.1c0.5,0.3,1,0.8,1.4,1.1c0.3,0.2,0.6,0.5,1,0.8
			c0.3,0.2,0.4,0.2,0.6,0.4c0.1,0.1,0.2,0.2,0.3,0.3c0.4,0.4,0.9,0.7,1.3,1c0.5,0.4,0.8,0.6,1.3,0.9c0.4,0.2,0.8,0.6,1.3,0.9
			c0.2,0.1,0.3,0.2,0.5,0.3c0.4,0.3,0.6,0.5,1.1,0.9c0.5,0.4,1.1,0.8,1.6,1.1c0.4,0.3,0.8,0.5,1.1,0.7c0.5,0.3,1,0.6,1.6,0.9
			c0.2,0.1,0.5,0.2,0.8,0.2c0.2,0.1,0.3,0.1,0.5,0.2c0.3,0,0.7,0.2,1,0.2c0.4,0.1,0.9,0.2,1.2,0.4c0.2,0.1,0.5,0.4,0.6,0.7
			c0.1,0.2,0.1,0.4,0,0.5c-0.1,0.2-0.2,0.3-0.3,0.5c-0.3,0.2-0.6,0.4-0.9,0.6c-0.3,0.2-0.6,0.3-0.9,0.4c-0.3,0.1-0.6,0.4-0.9,0.5
			c-0.4,0.2-0.6,0.2-1,0.4c-0.1,0.1-0.2,0.1-0.3,0.1c-0.1,0.1-0.2,0.1-0.3,0.2c-0.7,0.3-1,0.4-1.7,0.7c-0.2,0.1-0.4,0.2-0.6,0.2
			c-0.1,0-0.1,0.1-0.2,0.1c-0.3,0.1-0.4,0.2-0.7,0.3c-0.3,0.1-0.6,0.2-0.9,0.3c-0.1,0-0.1,0-0.1,0.1c-0.5,0.2-1.1,0.4-1.6,0.6
			c-0.3,0.1-0.5,0.2-0.8,0.4c-0.2,0.1-0.4,0.2-0.5,0.3c-0.1,0-0.1,0.1-0.2,0.1c-0.3,0.1-0.4,0.2-0.7,0.3c-0.2,0.1-0.4,0.2-0.5,0.2
			c-0.2,0.1-0.4,0.2-0.6,0.3c-0.2,0.1-0.5,0.2-0.8,0.3c-0.2,0.1-0.5,0.1-0.8,0c-0.2-0.1-0.5-0.2-0.7-0.5c-0.2-0.2-0.3-0.5-0.3-0.8
			c-0.1-0.4-0.3-0.9-0.5-1.3c0-0.1-0.1-0.1-0.1-0.2c-0.3-0.4-0.6-0.7-0.9-1c-0.5-0.4-0.8-0.6-1.3-0.9c-0.6-0.4-0.9-0.6-1.4-1
			c-0.3-0.2-0.4-0.3-0.7-0.5c0-0.1-0.1-0.1-0.1-0.1c-0.5-0.3-0.9-0.6-1.4-1c-0.1-0.1-0.2-0.2-0.3-0.2c-0.4-0.4-0.9-0.7-1.3-1
			c-0.2-0.2-0.4-0.3-0.6-0.5c-0.4-0.3-0.7-0.5-1.1-0.7c-0.4-0.3-0.8-0.6-1.2-0.8c-0.3-0.2-0.7-0.3-1-0.2c-0.3,0.1-0.6,0.3-0.8,0.6
			c-0.2,0.3-0.3,0.7-0.4,1.1c-0.3,0.9-0.4,1.3-0.7,2.2c-0.2,0.6-0.4,1.2-0.6,1.8c-0.1,0.4-0.2,0.8-0.3,1.3c0,0.3-0.1,0.7,0,1
			c0.1,0.2,0,0.3,0.1,0.5c0,0.2,0.1,0.3,0.2,0.5c0.1,0.2,0.2,0.4,0.3,0.6c0,0,0,0,0,0.1c0.2,0.3,0.2,0.5,0.4,0.8
			c0.1,0.2,0.2,0.3,0.3,0.4c0.1,0.2,0.1,0.3,0.2,0.5c0.2,0.4,0.4,0.7,0.6,1c0.3,0.3,0.7,0.7,1.2,0.8c0.1,0,0.2,0.1,0.4,0.1
			c0.1,0,0.2,0.1,0.3,0.1c0.1,0,0.3,0.1,0.4,0.1c0.2,0,0.5,0.1,0.7,0.2c0.1,0,0.2,0,0.4,0.1c0.3,0.1,0.5,0.3,0.7,0.5
			c0.2,0.2,0.3,0.5,0.2,0.8c-0.1,0.3-0.2,0.5-0.5,0.7c-0.1,0-0.1,0.2-0.3,0.3c-0.2,0.2-0.5,0.4-0.8,0.5c-0.2,0.1-0.3,0.2-0.5,0.3
			c0,0-0.1,0.1-0.1,0.1c-0.5,0.2-1,0.6-1.5,0.8C38.2,91.9,36.9,92.5,35.7,93.1z"/>
		<path id="XMLID_45_" d="M83.8,72.2c-0.2,0.1-0.3,0.1-0.5,0.2c-0.1,0-0.2,0.1-0.4,0.1c-0.1,0-0.1,0-0.2,0.1
			c-0.3,0.1-0.4,0.1-0.7,0.2c-0.5,0.1-1,0.3-1.5,0.3c-0.2,0-0.4,0-0.6-0.1c-0.4-0.2-0.6-0.6-0.6-1.1c0.1-0.3,0.1-0.5,0.2-0.8
			c0.3-0.4,0.4-0.6,0.6-0.9c0,0,0-0.1,0.1-0.1c0.1-0.3,0.3-0.6,0.4-1c0.1-0.3,0.1-0.5,0-0.8c0-0.5-0.1-1-0.3-1.5
			c-0.1-0.4-0.2-0.5-0.3-0.9c-0.1-0.2-0.1-0.3-0.2-0.5c-0.1-0.1-0.1-0.3-0.2-0.4c-0.3-1-0.5-1.6-0.9-2.6c-0.1-0.2-0.1-0.3-0.2-0.5
			c-0.1,0-0.1,0-0.1-0.1c-0.2-0.5-0.4-1.1-0.5-1.7c-0.2-0.5-0.2-0.7-0.4-1.2c-0.1-0.2-0.1-0.3-0.1-0.4c0-0.1-0.1-0.2-0.1-0.3
			c-0.2-0.6-0.3-0.9-0.5-1.6c0-0.1,0-0.1-0.1-0.2c-0.2-0.4-0.3-0.7-0.4-1.1c0-0.1-0.1-0.3-0.1-0.4c-0.1-0.3-0.1-0.4-0.2-0.6
			c-0.1-0.2-0.1-0.3-0.2-0.4c-0.2-0.7-0.3-1-0.6-1.7c-0.1-0.2-0.1-0.4-0.2-0.7c-0.1-0.3-0.1-0.4-0.2-0.6c-0.1-0.2-0.1-0.3-0.1-0.5
			c0-0.1,0-0.1-0.1-0.2c-0.3-0.8-0.4-1.3-0.7-2.1c0-0.1-0.1-0.2-0.1-0.3c-0.1-0.1-0.1-0.2-0.2-0.3c-0.1-0.2-0.1-0.3-0.2-0.5
			c-0.1,0-0.1-0.1-0.1-0.1c-0.1-0.3-0.2-0.7-0.4-1.1c-0.1-0.4-0.2-0.6-0.3-1c-0.1-0.2-0.1-0.3-0.2-0.5c-0.1-0.1-0.1-0.2-0.2-0.3
			c-0.4-1.2-0.6-1.7-1-2.9c-0.1-0.2-0.1-0.3-0.1-0.4c-0.1-0.1-0.1-0.2-0.2-0.3c-0.7-2.1-1.1-3.2-1.8-5.3c-0.1-0.4-0.3-0.8-0.5-1.1
			c-0.3-0.4-0.6-0.7-1-1c-0.4-0.2-0.8-0.4-1.2-0.5c-0.3-0.1-0.7-0.3-1-0.5c-0.1-0.1-0.2-0.2-0.3-0.3c-0.3-0.3-0.3-0.7-0.1-1.1
			c0.1-0.2,0.2-0.4,0.4-0.5c0.2-0.2,0.5-0.3,0.7-0.3c0.3-0.1,0.6-0.4,1-0.5c0.2-0.1,0.4-0.1,0.6-0.3c0.1,0,0.1,0,0.2-0.1
			c0.3-0.1,0.6-0.2,0.9-0.4c0,0,0.1,0,0.1,0c0.8-0.3,1.7-0.6,2.4-0.9c0.5-0.1,1.1-0.3,1.6-0.6c0,0,0.1,0,0.1,0
			c0.8-0.3,1.7-0.7,2.6-0.9c0.8-0.2,1.6-0.4,2.4-0.7c1.2-0.4,1.7-0.5,2.9-0.9c0.2,0,0.3-0.1,0.4-0.2c0.1,0,0.2-0.1,0.3-0.1
			c1.4-0.4,2.1-0.6,3.6-1c0.2,0,0.2-0.1,0.4-0.1c0.1,0,0.2,0,0.3,0c0.9-0.2,1.3-0.4,2.2-0.6c0.2-0.1,0.4-0.1,0.7-0.2
			c0.1,0,0.1,0,0.2-0.1c0.3-0.1,0.5-0.2,0.7-0.2c0.3-0.1,0.8-0.2,1.3-0.3c0,0,0.1,0,0.1,0c0.5-0.2,1.1-0.2,1.6-0.4
			c0.2,0,0.2-0.1,0.4-0.1c0.1,0,0.1,0,0.2,0c0.6-0.2,1.4-0.3,1.9-0.4c0.4-0.1,0.8-0.2,1.2-0.2c0,0,0,0,0.1,0c0.6,0,1.2-0.1,1.8-0.2
			c0.2,0,0.2,0,0.4,0c0.4-0.1,0.9,0,1.3-0.1c0.2,0,0.5-0.1,0.7,0c0.2,0,0.4,0,0.6,0c0.1,0,0.2,0,0.3,0c0.1,0,0.2,0,0.4,0
			c0.4,0,0.6,0.1,1,0.2c0.5,0.1,1,0.2,1.5,0.4c0.6,0.2,1.2,0.4,1.8,0.7c0.5,0.2,1,0.5,1.4,0.8c0.4,0.3,0.7,0.7,1.1,1
			c0.2,0.2,0.2,0.3,0.4,0.4c0.4,0.4,0.5,0.6,0.9,1c0.5,0.7,0.9,1.4,1.2,2.1c0.1,0.2,0.2,0.3,0.2,0.5c0.1,0.4,0.3,0.9,0.5,1.3
			c0.1,0.3,0.2,0.5,0.2,0.8c0,0.2,0.1,0.4,0.2,0.6c0,0.1,0.1,0.2,0.1,0.3c0,0.2,0.1,0.3,0.1,0.6c0.1,0,0.1,0.1,0.1,0.1
			c0.2,0.7,0.2,1.1,0.4,1.8c0,0.3,0.1,0.7,0.1,1c0,0.1,0,0.2,0,0.3c0,0.5,0,0.9,0,1.4c0,0.2,0,0.5-0.1,0.8c-0.1,0.5-0.1,1-0.1,1.5
			c-0.1,0.2-0.1,0.5-0.1,0.7c-0.1,0.6-0.3,1.2-0.5,1.7c-0.2,0.5-0.5,1.1-0.8,1.6c-0.2,0.3-0.4,0.5-0.5,0.9c-0.1,0.2-0.1,0.2-0.2,0.4
			c-0.2,0.3-0.4,0.5-0.6,0.8c-0.4,0.5-0.8,0.9-1.3,1.3c-0.4,0.3-0.8,0.7-1.2,1c-0.4,0.3-0.7,0.6-1.1,1c-0.3,0.3-0.4,0.7-0.4,1.2
			c0,0.2,0.1,0.5,0.2,0.7c0.2,0.4,0.4,0.7,0.7,1.1c0.4,0.5,0.8,1,1.2,1.6c0.1,0.2,0.2,0.2,0.3,0.4c0.5,0.6,1.1,1.3,1.6,1.9
			c0.3,0.3,0.5,0.6,0.7,0.9c0.1,0.2,0.2,0.4,0.4,0.5c0.2,0.3,0.3,0.4,0.5,0.7c0.4,0.5,0.6,0.7,0.9,1.2c0.3,0.3,0.6,0.7,0.9,1
			c0.3,0.3,0.6,0.6,1,0.9c0.1,0.1,0.2,0.2,0.3,0.3c0.3,0.2,0.7,0.4,1,0.6c0.5,0.2,0.7,0.3,1.1,0.6c0.2,0.1,0.4,0.3,0.6,0.4
			c0.1,0.1,0.3,0.3,0.3,0.5c0.1,0.3,0.1,0.6-0.1,0.8c-0.1,0.2-0.3,0.4-0.6,0.5c-0.2,0.1-0.5,0.2-0.7,0.3c-0.5,0.1-1.1,0.2-1.6,0.4
			c-0.3,0.1-0.5,0.1-0.8,0.2c-0.2,0.1-0.4,0.1-0.6,0.1c-0.2,0.1-0.4,0.2-0.7,0.2c-0.2,0-0.3,0.1-0.5,0.1c-0.1,0.1-0.3,0.1-0.5,0.2
			c-0.2,0-0.3,0.1-0.5,0.1c-0.2,0.1-0.5,0.2-0.8,0.2c-0.1,0-0.2,0-0.3,0.1c-0.1,0-0.3,0.1-0.5,0.1c0,0,0,0,0,0
			c-0.3,0.1-0.7,0.1-1,0.2c-0.3,0.1-0.7,0.1-1,0.1c-0.2,0-0.3,0.1-0.5,0.1c-0.1,0.1-0.2,0.1-0.3,0.1c-0.2,0.1-0.4,0.1-0.6,0.2
			c-0.1,0-0.1,0-0.2,0c-0.7,0.2-1.1,0.3-1.8,0.5c-0.1,0-0.3,0.1-0.4,0c-0.1,0-0.3,0-0.4,0c-0.5,0-0.9,0-1.3-0.3
			c-0.2-0.1-0.3-0.3-0.3-0.5c-0.1-0.2-0.1-0.5-0.1-0.7c0-0.3,0.1-0.4,0.1-0.7c0-0.2,0.1-0.5,0-0.8c0-0.2-0.1-0.5-0.2-0.7
			c-0.1-0.3-0.3-0.6-0.5-0.9c-0.4-0.4-0.7-0.8-1-1.2c-0.2-0.2-0.4-0.4-0.6-0.7c-0.4-0.5-0.8-0.9-1.2-1.4c-0.4-0.5-0.8-0.9-1.3-1.4
			c-0.4-0.4-0.7-0.8-1.1-1.2c-0.1,0-0.1-0.1-0.1-0.1c-0.4-0.5-0.8-0.9-1.3-1.4c-0.5-0.5-0.7-0.8-1.2-1.3c-0.6-0.5-1.2-0.7-1.9-0.7
			c-0.4,0-0.8,0.1-1.1,0.3c-0.2,0.1-0.4,0.2-0.6,0.4c-0.2,0.2-0.4,0.4-0.5,0.7c-0.1,0.3-0.1,0.7-0.1,1c0.1,0.6,0.2,1.3,0.5,1.9
			c0.1,0.5,0.2,0.7,0.4,1.2c0.1,0.3,0.2,0.6,0.3,0.9c0,0.2,0.1,0.3,0.1,0.6c0.1,0.3,0.2,0.5,0.3,0.9c0.1,0.3,0.1,0.4,0.2,0.7
			c0,0.1,0,0.2,0,0.3c0.1,0.4,0.2,0.6,0.3,1c0,0.1,0.1,0.3,0.2,0.4c0.1,0.3,0.1,0.4,0.2,0.7c0.1,0.3,0.2,0.6,0.3,0.8
			c0.1,0.2,0.4,0.5,0.5,0.7c0.4,0.5,0.9,0.7,1.4,1c0.4,0.1,0.7,0.3,1,0.5c0.1,0.1,0.3,0.2,0.4,0.4c0.3,0.4,0.3,0.9-0.1,1.3
			c-0.2,0.2-0.6,0.4-0.9,0.5c-0.3,0.1-0.5,0.2-0.8,0.3c-0.1,0-0.1,0-0.1,0c-0.2,0.1-0.6,0.2-0.7,0.3c0,0-0.1,0.1-0.2,0.1
			c-0.5,0.2-0.8,0.2-1.3,0.4c-0.6,0.1-1.1,0.3-1.7,0.5c-0.1,0-0.3,0.1-0.4,0.2c0,0-0.1,0-0.1,0c-0.4,0.1-0.8,0.2-1.2,0.4
			c-0.1,0-0.2,0.1-0.3,0.1c-0.3,0.2-0.7,0.3-1,0.4c-0.4,0.2-0.7,0.2-1.1,0.4c-0.2,0.1-0.4,0.2-0.7,0.2c-0.1,0-0.1,0-0.2,0.1
			C84.5,72.1,84.2,72.2,83.8,72.2z M91.4,38.8c0.4-0.1,0.8-0.3,1.2-0.4c0,0,0,0,0-0.1c0.4-0.1,0.6-0.2,1-0.3c0.3,0,0.5-0.1,0.7-0.1
			c0.3-0.1,0.6-0.2,0.9-0.3c0.2,0,0.3-0.1,0.3-0.2c0.1,0,0.2-0.1,0.4-0.1c0.2,0,0.3-0.1,0.5-0.2c0.2-0.1,0.3-0.1,0.6-0.2
			c0.4-0.1,0.7-0.3,1-0.4c0.3-0.1,0.5-0.4,0.6-0.8c0.2-0.4,0-1.3-0.4-1.5c-0.3-0.2-0.7-0.3-1-0.3c-0.4,0-0.8,0.1-1.1,0.2
			c-0.5,0.1-0.8,0.2-1.3,0.3c-0.4,0.1-0.8,0.2-1.3,0.3c0,0-0.1,0-0.1,0c-0.3,0-0.6,0.1-1,0.2c-0.3,0.1-0.4,0.1-0.6,0.2
			c-0.3,0.2-0.8,0.3-1.1,0.4c-0.1,0-0.2,0-0.3,0.1c-0.2,0-0.3,0-0.4,0.1c-0.3,0.1-0.5,0.1-0.8,0.2c-0.2,0-0.5,0.1-0.7,0.1
			c-0.3,0.1-0.4,0.1-0.7,0.2c-0.2,0.1-0.3,0.1-0.6,0.2c-0.5,0.1-0.9,0.3-1.3,0.5c-0.2,0-0.3,0.1-0.5,0.3c-0.2,0-0.3,0.2-0.5,0.3
			c-0.4,0.4-0.6,0.8-0.5,1.4c0.1,0.3,0.2,0.7,0.5,0.8c0.1,0,0.1,0.1,0.2,0.1c0.3,0.1,0.5,0.2,0.8,0.2c0.5,0,1-0.1,1.4-0.2
			s0.9-0.2,1.4-0.3c0,0,0,0,0.1,0c0.2,0,0.3,0,0.4-0.1C90.2,39.2,90.6,39.1,91.4,38.8z"/>
		<path id="XMLID_43_" d="M141.1,58.8c-1.5,0.2-2.2,0.3-3.7,0.6c-0.5,0.1-1,0.2-1.5,0.2c-0.1,0-0.3,0.1-0.4,0.1
			c-0.4,0-0.9,0.1-1.4,0.2c-0.4,0.1-1,0.1-1.4,0.1c-0.1,0-0.3-0.1-0.5,0c0-0.1-0.1,0-0.1,0c-0.7-0.2-0.9-0.9-0.7-1.5
			c0.1-0.1,0.1-0.2,0.1-0.4c0.2-0.3,0.4-0.7,0.6-1c0.3-0.4,0.6-0.9,0.9-1.4c0.1-0.1,0.1-0.2,0.1-0.4c0.1-0.3,0.1-0.7,0.1-1
			c0-0.2,0-0.3,0-0.5c0-0.2,0-0.4-0.1-0.6c-0.1-0.2-0.1-0.5-0.2-0.8c-0.1-0.3-0.1-0.7-0.2-1.1c-0.1-0.2-0.1-0.3-0.1-0.5
			c-0.2-1-0.3-1.5-0.4-2.6c-0.5-2.8-0.7-4.2-1.2-7c-0.1-0.4-0.1-0.7-0.2-1.1c-0.2-0.9-0.4-2-0.5-2.8c0-0.2,0-0.4-0.1-0.6
			c-0.1-0.6-0.2-1-0.3-1.6c0-0.2-0.1-0.3-0.1-0.5c-0.1-0.3-0.2-0.7-0.2-1.1c-0.2-0.8-0.3-1.7-0.5-2.5c0-0.3-0.1-0.6-0.2-0.9
			c0-0.2-0.1-0.3-0.1-0.6c-0.3-1.3-0.5-2.6-0.7-3.8c-0.1-0.5-0.1-1-0.3-1.5c-0.1-0.4-0.1-0.8-0.3-1.3c0-0.2-0.1-0.4-0.1-0.6
			c-0.1-0.7-0.3-1.5-0.4-2.2c-0.1-0.4-0.3-0.9-0.4-1.4c-0.1-0.4-0.4-0.8-0.8-1.1c-0.3-0.3-0.7-0.4-1.1-0.7c-0.2-0.1-0.4-0.2-0.6-0.3
			c-0.4-0.1-0.7-0.3-0.9-0.5c-0.2-0.2-0.3-0.4-0.3-0.7c0-0.2,0-0.4,0.2-0.6c0-0.1,0.1-0.2,0.2-0.3c0.3-0.2,0.5-0.3,0.8-0.4
			c0.6-0.2,1.2-0.3,1.8-0.4c0.6-0.1,0.9-0.1,1.4-0.2c0.3,0,0.6-0.1,0.8-0.2c0.3-0.1,0.6-0.2,0.9-0.2c0.3,0,0.6,0,0.8-0.1
			c0.9-0.1,1.4-0.2,2.3-0.3c1.3-0.2,2-0.3,3.3-0.5c0.2,0,0.3,0,0.5,0c0.4,0,0.7,0,1.1-0.1c1-0.1,1.5-0.2,2.4-0.3
			c0.4-0.1,0.9-0.1,1.3-0.1c0.4,0,0.7,0.1,1,0.4c0.1,0.1,0.2,0.3,0.2,0.4s0,0.3,0,0.5c-0.1,0.2-0.2,0.3-0.3,0.5
			c-0.2,0.3-0.5,0.7-0.8,1c-0.3,0.3-0.6,0.8-0.8,1.2c-0.2,0.4-0.3,0.9-0.3,1.4c0.1,1.5,0.3,3.1,0.5,4.6c0,0.2,0,0.3,0.1,0.5
			c0.2,0.7,0.3,1.3,0.3,2c0,0.3,0.1,0.4,0.1,0.7c0.1,1.1,0.3,2.3,0.4,3.4c0.1,0.5,0.1,1,0.1,1.5c0,0.2,0,0.3,0.1,0.6
			c0.2,1.9,0.4,2.8,0.6,4.7c0,0.3,0.1,0.5,0.2,0.8c0,0.2,0,0.3,0.1,0.5c0.1,0.7,0.2,1.3,0.2,2c0,0.2,0,0.3,0.1,0.5
			c0.1,1.1,0.2,2.1,0.4,3.2c0.1,0.7,0.1,1.1,0.2,1.8c0,0.3,0.1,0.7,0.1,1c0,0.6,0.1,1.1,0.2,1.7c0.1,0,0.1,0.1,0.1,0.2
			c0.1,0.7,0.3,1.5,0.4,2.2c0,0.2,0.1,0.5,0.2,0.8c0,0.2,0,0.4,0.1,0.6c0.1,0.6,0.1,0.9,0.2,1.5c0.1,0.4,0.1,0.7,0.2,1.1
			c0.1,0.4,0.3,0.7,0.6,1c0.3,0.3,0.6,0.6,1,0.8c0.4,0.2,0.8,0.5,1.2,0.8c0.2,0.1,0.4,0.4,0.5,0.6c0.1,0.2,0.1,0.3,0.2,0.5
			c0,0.2,0,0.3-0.1,0.5c-0.2,0.2-0.4,0.4-0.6,0.5c-0.3,0.1-0.6,0.3-0.9,0.3c-0.3,0-0.7,0.1-1.1,0.1c-0.3,0-0.5,0.1-0.8,0.2
			c-0.2,0-0.3,0-0.4,0.1c-0.4,0-0.6,0.1-0.9,0.1c-0.3,0-0.6,0.1-0.9,0.1c-0.2,0-0.2,0-0.4,0.1C141.8,58.7,141.4,58.7,141.1,58.8z"/>
		<path id="XMLID_41_" d="M164.1,56.9c-0.3,0-0.4,0-0.7,0.1c-0.3,0-0.7,0.1-1.1,0c-0.1,0-0.2,0-0.3,0c-0.3,0-0.5-0.1-0.8-0.1
			c-0.3,0-0.5-0.2-0.6-0.5c-0.1-0.1-0.1-0.1-0.1-0.2c-0.1-0.2-0.1-0.6,0.1-0.9c0.2-0.4,0.4-0.7,0.7-1c0.3-0.4,0.5-0.6,0.8-0.9
			c0.2-0.3,0.5-0.7,0.6-1c0.1-0.3,0.2-0.7,0.2-1.1c0-0.3,0-0.6,0-0.9c0-0.4,0-0.8-0.1-1.1c0-0.3-0.1-0.6-0.1-0.8
			c-0.2-2.3-0.3-3.5-0.5-5.8c-0.2-2-0.2-3.1-0.4-5.1c0-0.3,0-0.6,0-0.9c0-0.2,0-0.3,0-0.6c-0.1-1.7-0.2-2.5-0.3-4.2
			c-0.1-1.3-0.2-1.9-0.3-3.2c0-0.5-0.1-0.7-0.1-1.2c0-0.2,0-0.3-0.1-0.5c-0.1-0.4-0.1-0.8-0.1-1.2c0-0.2,0-0.3-0.1-0.5
			c-0.1-0.3-0.1-0.7-0.1-1.1c-0.1-0.7-0.1-1.1-0.1-1.8c-0.1-1.4-0.2-2.2-0.3-3.6c0-0.1,0-0.2-0.1-0.3c-0.1-0.6-0.1-1.1-0.2-1.7
			c0-0.4-0.1-0.7-0.2-1.1c-0.1-0.4-0.4-0.9-0.7-1.2c-0.2-0.2-0.3-0.3-0.5-0.4c-0.4-0.3-0.7-0.6-1.1-0.8c-0.3-0.1-0.5-0.4-0.8-0.6
			c-0.3-0.3-0.5-0.8-0.4-1.2c0-0.1,0-0.2,0.1-0.3c0.1-0.3,0.4-0.5,0.7-0.6c0.4-0.1,0.7-0.2,1-0.3c0.3,0,0.5,0,0.8-0.1
			c1.2-0.1,1.8-0.1,2.9-0.2c0.1,0,0.3,0,0.4-0.1c0.7-0.2,1.8-0.2,2.6-0.2c1,0,2.1,0,3.1-0.1c2.5-0.1,3.7-0.2,6.2-0.3
			c0.3,0,0.6,0,0.8,0c0.3,0,0.5,0,0.8,0c1.7-0.1,2.6-0.1,4.3-0.1c0.3,0,0.4,0,0.7,0c0.2,0,0.3,0,0.4,0c0.3,0.1,0.8,0,1.2,0
			c0.9,0,1.3,0,2.2,0c0.3,0,0.5-0.1,0.7-0.1c0.3,0,0.5-0.1,0.7-0.1c0.4,0,0.8,0,1.1-0.1c0.2,0,0.4-0.1,0.6-0.1c1.3,0,1.9,0,3.2,0
			c1.6,0,2.5,0,4.1,0c0.2,0,0.4-0.1,0.7,0c0.3,0,0.6,0,0.8,0c0.4,0,0.8,0,1.1,0c0.2,0,0.3,0,0.4,0c0.5,0,0.7,0,1.2,0
			c0.4,0,0.8,0.1,1.2,0.1c0.4,0.1,0.9,0.4,1.2,0.7c0.2,0.2,0.3,0.4,0.4,0.6c0.1,0.3,0.2,0.7,0.2,1c0,0.9-0.1,1.8-0.1,2.7
			c0,0.1,0,0.1,0,0.2c-0.1,0.5-0.1,1-0.1,1.5c-0.1,1.5-0.1,2.3-0.1,3.9c0,0.3,0,0.6,0,0.9c0,0.2,0,0.4,0,0.6c0,0.6,0,1.2,0,1.8
			c0,0.6-0.1,1.2-0.2,1.9c0,0.1-0.1,0.3-0.1,0.4c-0.1,0.2-0.2,0.3-0.3,0.4c-0.1,0.1-0.2,0.1-0.3,0.1c-0.2,0.1-0.4,0-0.6,0
			c-0.2,0-0.4-0.1-0.5-0.2c-0.4-0.4-0.7-0.7-1-1.1c-0.3-0.3-0.4-0.5-0.7-0.8c-0.3-0.2-0.4-0.3-0.6-0.5c-0.1-0.1-0.1-0.1-0.2-0.1
			c-0.4-0.2-0.8-0.4-1.3-0.4c-0.2,0-0.3-0.1-0.5-0.1c-0.3-0.1-0.5,0-0.8,0c-0.5,0.1-1.1,0.1-1.6,0c-0.1,0-0.3-0.1-0.5-0.1
			c-1.1,0-1.6,0-2.7,0c-0.1,0-0.3,0-0.4,0.1c-0.4,0.1-0.9,0.1-1.2,0.1c-0.3,0-0.5,0-0.9,0c-0.3,0-0.6,0-0.9-0.1
			c-0.2,0-0.3-0.1-0.5-0.1c-0.4,0-0.6,0-1.1,0c-0.2,0-0.4,0-0.5,0c-0.3-0.1-0.6,0-0.9,0c-2.4,0-3.5,0.1-5.9,0.1c-0.3,0-0.7,0-1,0.1
			c-0.2,0.1-0.5,0.1-0.7,0.1c-0.4,0-0.8,0.1-1.1,0.2c-0.5,0.1-1.1,0.8-1.1,1.2c0,0.2,0,0.3,0,0.4c0,0.5,0.2,0.8,0.6,1.1
			c0.3,0.2,0.7,0.4,1.1,0.4c0.3,0,0.6,0,0.9,0c0.1,0,0.2,0,0.3,0c0.4-0.1,0.7-0.1,1-0.1c2.6-0.1,3.9-0.1,6.6-0.2c0.8,0,1.1,0,1.9,0
			c0.4,0,0.8,0,1.2-0.1c0.2,0,0.3,0,0.4,0c0.8,0,1.1,0,1.9,0c0.3,0,0.7,0,1,0.1c0.2,0,0.4,0.1,0.6,0.1c0.6,0,0.9,0,1.5,0
			c0.3,0,0.5,0.1,0.8,0.1c0.7,0.2,1.2,0.9,1.3,1.7c0,0.3,0,0.7,0,1.1c0,0.9,0,1.4,0,2.3c0,0.2,0,0.5,0,0.7c0,0.2,0,0.4,0,0.6
			c0,0.4,0,0.6,0,1c0,0.2,0,0.4,0,0.5c0.1,0.4,0,0.9,0,1.3c0,0.6,0,0.9,0,1.5c0,0.3-0.1,0.6-0.1,0.9c-0.2,0.7-0.7,1.1-1.3,1.3
			c-0.3,0.1-0.6,0.1-0.9,0.1c-0.3,0-0.5,0-0.8,0c-0.4,0-0.8,0-1.2,0.1c-0.2,0-0.5,0.1-0.7,0.1c-0.3,0-0.5,0.1-0.8,0.1
			c-0.2,0-0.3,0-0.5,0.1c-1.2,0-1.9,0-3.1,0c-0.3,0-0.5,0-0.7,0c-1,0-1.4,0-2.4,0c-0.3,0-0.5,0-0.7,0c-0.2,0-0.5,0-0.7,0
			c-0.5,0-0.9,0-1.4,0c-0.1-0.1-0.2-0.1-0.2-0.1c-1.2,0-1.8,0.1-3.1,0.1c-0.4,0-0.7,0.1-1,0.3c-0.6,0.3-1,1.2-0.5,2
			c0.1,0.3,0.3,0.5,0.5,0.6c0.2,0.2,0.5,0.3,0.8,0.3c0.4,0.1,1,0.1,1.4,0.1c1.6-0.1,2.4-0.1,4-0.1c0.3,0,0.6,0,0.8-0.1
			c0.2,0,0.4-0.1,0.6-0.1c0.5,0,1,0,1.4-0.1c0.1,0,0.3,0,0.4,0c0.3,0.1,0.7,0,1,0c0.3,0,0.4,0,0.7,0c0.2,0,0.3,0,0.4-0.1
			c0.2-0.1,0.7-0.1,1-0.1c1,0,1.5,0,2.5,0c0.3,0,0.5,0,0.8-0.1c0.2,0,0.4-0.1,0.6-0.1c1.1,0,1.6,0,2.6,0c0.3,0,0.5,0,0.8,0
			c0.5,0,0.9-0.1,1.3-0.1c0.3-0.1,0.7-0.2,0.9-0.4c0.3-0.3,0.7-0.6,1-0.9c0.3-0.4,0.7-0.9,1.1-1.3c0.2-0.2,0.3-0.3,0.5-0.4
			c0.1-0.1,0.2-0.1,0.3-0.2c0.4-0.1,0.7,0,0.9,0.3c0.2,0.1,0.2,0.3,0.3,0.5c0.1,0.3,0.2,0.7,0.2,1c0,0.6,0,1.2-0.1,1.8
			c0,0.1,0,0.2,0,0.3c-0.1,0.5-0.1,1-0.1,1.5c0,1,0,1.5-0.1,2.4c0,0.4-0.1,0.9,0,1.3c0,0.2,0,0.3,0,0.6c-0.1,1.9-0.1,2.9-0.2,4.8
			c0,0.2-0.1,0.5-0.1,0.7c-0.1,0.5-0.3,0.8-0.6,1.2c-0.3,0.3-0.6,0.6-1,0.6c-0.4,0-0.8,0.1-1.2,0.1c-0.1,0-0.2,0-0.3-0.1
			c-0.4-0.1-0.8-0.1-1.2-0.1c-0.3,0-0.6,0-0.8-0.1c-0.1,0-0.3-0.1-0.4-0.1c-0.4,0-0.6,0-1,0c-0.2,0-0.4,0.1-0.6,0
			c-0.2,0-0.3,0.1-0.5,0.1c-0.5,0-0.8,0-1.3,0c-1.4,0-2,0-3.4,0c-0.8,0-1.2,0-2,0c-2,0-3,0-5.1,0.1c-0.2,0-0.5,0-0.8,0.1
			c-0.2,0.1-0.4,0.1-0.6,0.1c-1.6,0-2.4,0.1-3.9,0.1c-0.2,0-0.5,0-0.8,0.1c-0.1,0-0.3,0-0.3,0.1c-0.3,0.1-0.8,0-1.2,0.1
			c-0.1,0-0.3,0.1-0.4,0.1c-0.8,0-1.1,0.1-1.9,0.1c-0.7,0-1,0.1-1.7,0.1c-0.3,0-0.6,0-0.9,0.1c-0.2,0.1-0.4,0.1-0.6,0.1
			c-0.3,0-0.6,0-0.9,0.1c-0.2,0-0.3,0-0.4,0c-0.7,0-1,0.1-1.7,0.1C164.7,56.9,164.4,57,164.1,56.9z"/>
		<path id="XMLID_39_" d="M230.2,59.7c-0.5-0.2-1.1-0.4-1.6-0.6c-0.5-0.2-1-0.4-1.5-0.6c-0.4-0.2-0.8-0.5-1.3-0.7
			c-0.5-0.3-0.7-0.4-1.2-0.6c-0.1,0-0.1,0-0.2-0.1c-0.5-0.4-1.1-0.7-1.6-1.1c-0.4-0.3-0.6-0.5-1-0.8c-0.5-0.5-0.7-0.7-1.2-1.1
			c-0.4-0.4-0.7-0.8-1.1-1.1c-0.3-0.4-0.4-0.6-0.7-0.9c-0.1-0.1-0.1-0.1-0.2-0.2c-0.2-0.4-0.5-0.7-0.7-1c-0.2-0.2-0.3-0.5-0.5-0.8
			c-0.2-0.3-0.4-0.7-0.6-1.1c0-0.1-0.1-0.1-0.1-0.2c-0.4-0.7-0.7-1.3-1-2c-0.4-0.8-0.7-1.8-1-2.7c-0.1-0.4-0.1-0.6-0.2-1
			c-0.1-0.4-0.1-0.6-0.2-1c-0.2-1-0.4-2.1-0.4-3.1c0-0.6,0-1.3,0-1.9c0-0.2,0-0.2,0-0.4c0.1-1.7,0.2-2.6,0.3-4.3
			c0-0.2,0-0.5,0.1-0.7c0-0.2,0-0.2,0-0.4c0.1-0.6,0.2-1.2,0.4-1.7c0.1-0.4,0.3-0.9,0.5-1.4c0.2-0.8,0.4-1.1,0.6-1.9
			c0.3-0.7,0.5-1.3,0.9-1.9c0.1-0.2,0.2-0.4,0.3-0.7c0.4-0.7,0.6-1,0.9-1.7c0.1-0.2,0.2-0.3,0.3-0.4c0.4-0.7,1-1.2,1.5-1.8
			c0.5-0.5,1-1.1,1.6-1.7c0.6-0.7,1.3-1.3,2-1.9c0.2-0.2,0.3-0.2,0.5-0.4c0.7-0.5,1.5-1,2.2-1.5c0.3-0.1,0.5-0.3,0.8-0.4
			c0.5-0.3,1.1-0.6,1.6-0.8c0.6-0.3,1.2-0.6,1.8-0.9c0.7-0.3,1.6-0.6,2.3-0.8c0.6-0.2,1.3-0.4,1.8-0.5c0.7-0.1,1.6-0.3,2.3-0.4
			c0.5-0.1,0.9-0.1,1.4-0.1c0.6,0,1.1,0,1.6,0c0.8,0,1.7,0.1,2.5,0.2c0.2,0,0.5,0.1,0.7,0.2c0.1,0,0.2,0.1,0.3,0.1
			c0.5,0.1,0.9,0.2,1.4,0.4c0.9,0.3,1.3,0.5,2.2,0.8c1,0.4,1.9,0.8,2.8,1.4c0.8,0.4,1.5,0.9,2.3,1.4c0.4,0.3,0.8,0.6,1.2,0.9
			c0.2,0.2,0.5,0.4,0.7,0.6c0.4,0.4,1,0.5,1.4,0.5c0.2,0,0.4,0,0.6-0.1c0.4-0.2,0.7-0.3,1.1-0.6c0.4-0.3,0.9-0.4,1.3-0.5
			c0.3-0.1,0.6-0.1,0.8,0c0.2,0,0.3,0.1,0.4,0.2c0.3,0.4,0.5,0.8,0.5,1.3c0,0.1,0,0.1,0,0.2c-0.1,0.6-0.2,1.1-0.4,1.6
			c-0.1,0.2-0.1,0.4-0.2,0.6c0,0.2-0.1,0.5-0.2,0.7c0,0.1-0.1,0.1-0.1,0.2c-0.1,0.7-0.4,1.4-0.5,2.2c0,0.2-0.1,0.4-0.2,0.6
			c0,0.2-0.1,0.5-0.2,0.7c-0.1,0.8-0.2,1.1-0.4,1.9c-0.1,0.3-0.1,0.5-0.2,0.8c0,0.2-0.1,0.3-0.1,0.4c-0.2,0.6-0.3,1.4-0.5,2
			c-0.2,0.6-0.3,1.2-0.4,1.8c-0.1,0.4-0.2,0.8-0.3,1.2c-0.2,0.6-0.7,1.1-1.3,1.3c-0.5,0.2-1,0.2-1.5,0.1c-0.2-0.1-0.5-0.2-0.7-0.3
			c-0.3-0.1-0.9-0.6-1.1-0.9c-0.3-0.5-0.7-1-1-1.6c-0.2-0.4-0.4-0.8-0.7-1.2c0-0.1-0.1-0.3-0.2-0.4c-0.1-0.3-0.3-0.5-0.5-0.8
			c-0.1-0.2-0.3-0.4-0.5-0.6c-0.2-0.3-0.5-0.6-0.7-0.9c-0.6-0.6-1.1-1.1-1.7-1.5c-0.3-0.2-0.5-0.4-0.8-0.6c-0.2-0.1-0.4-0.3-0.6-0.5
			c-1-0.8-2.1-1.4-3.4-1.8c-0.4-0.1-0.8-0.2-1.2-0.3c-0.1,0-0.2,0-0.3,0c-0.6-0.2-1.2-0.3-1.8-0.2c-0.1,0-0.1,0-0.2,0
			c-0.4,0-0.8,0-1.2,0c-0.4,0-0.8,0.1-1.2,0.3c-1.1,0.2-2,0.7-3,1.2c-0.2,0.1-0.3,0.3-0.5,0.3c-0.1,0.1-0.1,0.1-0.2,0.2
			c-0.6,0.4-1.1,1-1.6,1.5c-0.3,0.4-0.4,0.5-0.7,0.9c-0.4,0.6-0.8,1.2-1.1,1.8c-0.3,0.6-0.6,1.2-0.9,1.7c-0.3,0.7-0.6,1.4-0.8,2.1
			c-0.2,0.6-0.3,1.2-0.4,1.9c0,0.3,0,0.4-0.1,0.7c-0.1,0.8-0.1,1.6,0,2.5c0.1,0.9,0.1,1.4,0.2,2.4c0.1,0.6,0.2,1.1,0.4,1.6
			c0.2,0.6,0.4,1.3,0.7,1.9c0.1,0.3,0.3,0.5,0.4,0.8c0.2,0.4,0.5,0.9,0.7,1.2c0.2,0.4,0.5,0.8,0.8,1.1c0.2,0.2,0.4,0.4,0.6,0.6
			c0.5,0.5,1,0.9,1.6,1.2c0.5,0.3,1,0.5,1.6,0.7c0.1,0.1,0.2,0.1,0.2,0.1c0.8,0.1,1.5,0.4,2.3,0.4c0.1,0,0.2,0,0.4,0
			c0.1,0,0.2,0,0.3,0c0.8,0.1,1.6-0.1,2.3-0.3c0.4-0.1,0.8-0.3,1.2-0.5c0.6-0.3,1-0.8,1.4-1.4c0.4-0.7,0.6-1.5,0.7-2.3
			c0-0.5,0-0.9-0.1-1.4c0,0,0-0.1,0-0.1c-0.2-0.4-0.3-0.7-0.5-1c-0.2-0.3-0.3-0.5-0.5-0.8c-0.1-0.2-0.2-0.4-0.4-0.7
			c0-0.1,0-0.1-0.1-0.2c-0.2-0.6,0.1-1.1,0.6-1.3c0.1,0,0.3-0.1,0.5-0.1c0.5-0.1,1.1-0.1,1.6,0c0.1,0,0.2,0,0.3,0
			c0.6,0,1.1,0.1,1.7,0.2c0.3,0.1,0.5,0.1,0.9,0.1c0.2,0,0.3,0,0.5,0.1c0.4,0.1,0.6,0.2,1,0.3c1,0.2,1.5,0.3,2.6,0.4
			c0.3,0,0.5,0.1,0.7,0.2c0.2,0,0.3,0.1,0.6,0.1c0.4,0.1,0.7,0.2,1.1,0.2c0.3,0.1,0.6,0.1,0.9,0.2c0.3,0.1,0.5,0.1,0.8,0.1
			c0.3,0,0.5,0.2,0.8,0.3c0.2,0.1,0.4,0.3,0.5,0.6c0,0.1,0.1,0.2,0,0.3c0,0.4-0.1,0.7-0.4,1c-0.2,0.3-0.5,0.5-0.7,0.8
			c-0.5,0.5-0.9,1.2-1.1,1.9c0,0.1,0,0.2-0.1,0.3c-0.1,0.3-0.1,0.6-0.2,0.9c0,0.6-0.2,1.2-0.4,1.8c0,0.2,0,0.3-0.1,0.4
			c-0.1,0.4-0.2,0.9-0.4,1.4c0,0.2-0.1,0.3-0.1,0.5c-0.2,1.1-0.4,2.1-0.6,3.1c-0.1,0.4-0.1,0.5-0.2,0.9c-0.1,0.2-0.1,0.4-0.1,0.6
			c-0.1,0.4-0.1,0.5-0.2,0.9c-0.2,0.9-0.3,1.9-0.5,2.9c-0.1,0.3-0.2,0.6-0.3,0.9c-0.1,0.2-0.2,0.5-0.4,0.7c-0.3,0.3-0.6,0.5-0.9,0.4
			c-0.2-0.1-0.5-0.2-0.6-0.3c-0.1-0.1-0.3-0.3-0.5-0.5c-0.2-0.2-0.4-0.5-0.5-0.7c-0.3-0.4-0.6-0.7-1.1-0.9c-0.4-0.2-0.8-0.2-1.2-0.1
			c-0.2,0-0.4,0.1-0.6,0.2c-1.1,0.3-2.3,0.5-3.4,0.8c-0.1,0-0.2,0-0.3,0.1c-0.4,0.1-0.8,0.2-1.1,0.2c-0.1,0-0.3,0.1-0.4,0.1
			c-0.9,0.3-1.9,0.5-2.8,0.6c-0.4,0.1-0.8,0.1-1.1,0.1c-0.9,0-1.9-0.2-2.8-0.3C232,60.3,231.1,60,230.2,59.7z"/>
		<path id="XMLID_37_" d="M266.9,65c-0.3-0.1-0.4-0.1-0.7-0.2c-0.3-0.1-0.7-0.2-1-0.4c-0.1,0-0.2,0-0.3-0.1
			c-0.3-0.1-0.5-0.2-0.7-0.3c-0.3-0.1-0.4-0.4-0.5-0.6c0-0.1,0-0.1,0-0.2c0-0.3,0.1-0.6,0.3-0.8c0.3-0.3,0.6-0.6,0.9-0.7
			c0.4-0.3,0.6-0.4,1.1-0.6c0.3-0.2,0.7-0.5,0.9-0.8c0.2-0.3,0.4-0.6,0.5-1c0.1-0.3,0.2-0.6,0.2-0.8c0.1-0.4,0.2-0.8,0.3-1.1
			c0-0.3,0.1-0.6,0.1-0.8c0.5-2.3,0.8-3.4,1.3-5.6c0.5-2,0.7-3,1.2-5c0.1-0.3,0.1-0.6,0.2-0.8c0-0.2,0.1-0.3,0.2-0.5
			c0.4-1.7,0.6-2.5,1-4.1c0.3-1.3,0.4-1.9,0.7-3.2c0.1-0.5,0.2-0.7,0.3-1.2c0-0.2,0.1-0.3,0.1-0.5c0-0.4,0.1-0.8,0.2-1.2
			c0-0.2,0.1-0.3,0.1-0.5c0-0.3,0.1-0.7,0.2-1.1c0.2-0.7,0.2-1,0.4-1.7c0.3-1.4,0.5-2.1,0.8-3.5c0-0.1,0.1-0.2,0-0.3
			c0.1-0.6,0.2-1.1,0.3-1.7c0.1-0.4,0.1-0.7,0.1-1.1c0-0.4-0.1-1-0.3-1.4c-0.1-0.2-0.2-0.3-0.3-0.5c-0.3-0.4-0.5-0.8-0.8-1.1
			c-0.2-0.2-0.4-0.5-0.6-0.8c-0.2-0.4-0.2-0.9-0.1-1.3c0-0.1,0-0.2,0.2-0.3c0.2-0.2,0.6-0.4,0.9-0.4c0.4,0,0.7,0,1.1,0.1
			c0.3,0.1,0.5,0.1,0.8,0.2c1.2,0.3,1.7,0.4,2.9,0.7c0.1,0,0.3,0,0.4,0c0.8,0,1.8,0.3,2.6,0.6c0.9,0.3,2,0.6,3,0.9
			c2.4,0.6,3.6,0.9,6,1.6c0.3,0.1,0.5,0.2,0.7,0.3c0.3,0.1,0.5,0.2,0.7,0.3c1.7,0.5,2.5,0.7,4.1,1.2c0.3,0.1,0.4,0.1,0.7,0.2
			c0.2,0,0.3,0.1,0.4,0.2c0.3,0.2,0.7,0.3,1.1,0.4c0.9,0.3,1.3,0.4,2.1,0.6c0.3,0.1,0.5,0.1,0.7,0.2c0.3,0.1,0.5,0.1,0.7,0.2
			c0.4,0.1,0.7,0.3,1.1,0.3c0.2,0,0.4,0.1,0.6,0.1c1.2,0.4,1.9,0.6,3.1,1c1.6,0.5,2.4,0.8,3.9,1.3c0.2,0.1,0.4,0.1,0.7,0.2
			c0.3,0.1,0.5,0.1,0.8,0.2c0.4,0.1,0.7,0.3,1.1,0.3c0.2,0,0.3,0.1,0.4,0.1c0.4,0.2,0.7,0.2,1.1,0.4c0.4,0.1,0.8,0.3,1.1,0.5
			c0.4,0.2,0.7,0.6,0.9,1.1c0.2,0.2,0.2,0.5,0.2,0.7c0,0.3,0,0.7-0.1,1c-0.3,0.9-0.6,1.7-1,2.6c0,0.1,0,0.1-0.1,0.2
			c-0.2,0.5-0.4,0.9-0.6,1.4c-0.5,1.5-0.8,2.2-1.3,3.6c-0.1,0.3-0.2,0.6-0.3,0.9c0,0.2-0.1,0.4-0.2,0.6c-0.2,0.5-0.4,1.1-0.5,1.7
			c-0.2,0.6-0.5,1.2-0.7,1.7c0,0.1-0.2,0.2-0.2,0.3c-0.1,0.1-0.3,0.3-0.5,0.3c-0.1,0-0.2,0.1-0.3,0c-0.2,0-0.4-0.1-0.6-0.2
			c-0.2-0.1-0.3-0.2-0.4-0.4c-0.2-0.4-0.5-0.9-0.7-1.4c-0.2-0.4-0.3-0.6-0.4-0.9c-0.2-0.3-0.3-0.4-0.4-0.7c0-0.1-0.1-0.1-0.2-0.2
			c-0.4-0.3-0.7-0.6-1.2-0.8c-0.2-0.1-0.3-0.2-0.4-0.2c-0.2-0.1-0.5-0.2-0.8-0.3c-0.5-0.1-1.1-0.3-1.5-0.5c-0.1-0.1-0.3-0.2-0.5-0.2
			c-1-0.3-1.5-0.5-2.6-0.8c-0.1,0-0.3-0.1-0.4-0.1c-0.4,0-0.8-0.2-1.2-0.3c-0.3-0.1-0.5-0.2-0.8-0.3c-0.3-0.1-0.6-0.2-0.8-0.3
			c-0.1-0.1-0.3-0.1-0.4-0.2c-0.4-0.1-0.6-0.2-1-0.3c-0.2,0-0.4-0.1-0.5-0.2c-0.3-0.2-0.6-0.2-0.8-0.3c-2.3-0.7-3.4-1-5.7-1.7
			c-0.3-0.1-0.6-0.2-1-0.2c-0.2,0-0.5-0.1-0.7-0.1c-0.4-0.1-0.8-0.1-1.1-0.1c-0.5,0-1.3,0.5-1.4,0.8c-0.1,0.1-0.1,0.3-0.2,0.4
			c-0.1,0.4,0,0.9,0.2,1.2c0.3,0.3,0.6,0.6,0.9,0.7c0.3,0.1,0.6,0.2,0.8,0.3c0.1,0,0.2,0,0.3,0.1c0.4,0,0.7,0.1,1,0.2
			c2.6,0.7,3.8,1.1,6.4,1.9c0.7,0.2,1.1,0.3,1.8,0.6c0.4,0.1,0.8,0.2,1.2,0.3c0.2,0.1,0.2,0.1,0.4,0.1c0.7,0.2,1.1,0.3,1.8,0.6
			c0.3,0.1,0.6,0.2,0.9,0.3c0.2,0.1,0.4,0.2,0.5,0.2c0.6,0.2,0.9,0.3,1.4,0.5c0.3,0.1,0.5,0.2,0.7,0.4c0.6,0.5,0.9,1.2,0.7,2
			c-0.1,0.3-0.2,0.7-0.3,1c-0.3,0.9-0.4,1.3-0.7,2.2c-0.1,0.2-0.1,0.5-0.2,0.7c0,0.2-0.1,0.4-0.1,0.6c-0.1,0.4-0.2,0.5-0.3,0.9
			c-0.1,0.2-0.1,0.3-0.1,0.5c0,0.4-0.2,0.8-0.4,1.3c-0.2,0.6-0.3,0.8-0.5,1.4c-0.1,0.3-0.2,0.5-0.4,0.8c-0.4,0.6-1,0.8-1.6,0.8
			c-0.3,0-0.6-0.1-0.9-0.2c-0.3-0.1-0.4-0.1-0.7-0.2c-0.3-0.1-0.8-0.3-1.1-0.3c-0.2,0-0.5-0.1-0.7-0.2c-0.2-0.1-0.5-0.1-0.8-0.2
			c-0.2,0-0.3-0.1-0.5-0.1c-1.2-0.4-1.8-0.6-3-0.9c-0.2-0.1-0.4-0.1-0.6-0.2c-0.9-0.3-1.4-0.4-2.3-0.7c-0.2-0.1-0.5-0.2-0.7-0.3
			s-0.4-0.2-0.6-0.2c-0.4-0.1-0.9-0.3-1.3-0.4c0-0.1-0.1-0.1-0.2-0.1c-1.2-0.3-1.8-0.5-3-0.8c-0.3-0.1-0.7-0.1-1.1-0.1
			c-0.6,0.1-1.3,0.8-1.1,1.8c0,0.3,0.2,0.5,0.3,0.7c0.2,0.2,0.4,0.4,0.7,0.5c0.4,0.2,0.9,0.4,1.3,0.5c1.5,0.4,2.3,0.7,3.8,1.1
			c0.2,0.1,0.6,0.1,0.8,0.2c0.2,0,0.4,0.1,0.6,0.1c0.5,0.1,1,0.3,1.4,0.4c0.1,0,0.3,0,0.4,0.1c0.3,0.2,0.6,0.2,1,0.4
			c0.3,0.1,0.4,0.1,0.7,0.2c0.1,0,0.3,0.1,0.4,0.1c0.3,0,0.7,0.1,0.9,0.2c1,0.3,1.5,0.5,2.4,0.8c0.2,0.1,0.5,0.2,0.8,0.2
			c0.2,0,0.4,0.1,0.6,0.1c1,0.3,1.5,0.5,2.5,0.8c0.3,0.1,0.4,0.1,0.7,0.2c0.4,0.1,0.9,0.2,1.3,0.3c0.3,0,0.7,0,1-0.1
			c0.4-0.2,0.9-0.3,1.2-0.6c0.4-0.3,0.9-0.6,1.5-0.9c0.2-0.1,0.4-0.2,0.6-0.2c0.1,0,0.2,0,0.3-0.1c0.4,0,0.6,0.2,0.7,0.6
			c0.1,0.2,0.1,0.4,0.1,0.6c0,0.3,0,0.7-0.1,1c-0.2,0.6-0.4,1.1-0.6,1.6c0,0.1-0.1,0.2-0.1,0.3c-0.2,0.4-0.4,0.9-0.5,1.4
			c-0.3,0.9-0.5,1.4-0.8,2.3c-0.1,0.4-0.3,0.8-0.4,1.2c0,0.2-0.1,0.3-0.1,0.6c-0.6,1.8-1,2.7-1.6,4.5c-0.1,0.2-0.2,0.5-0.3,0.7
			c-0.2,0.4-0.5,0.7-0.9,0.9c-0.3,0.2-0.8,0.3-1.1,0.3c-0.4-0.1-0.8-0.1-1.2-0.2c-0.1,0-0.2-0.1-0.3-0.2c-0.4-0.2-0.8-0.3-1.1-0.5
			c-0.3-0.1-0.5-0.2-0.8-0.3c-0.1-0.1-0.3-0.1-0.4-0.2c-0.4-0.1-0.6-0.2-1-0.3c-0.2-0.1-0.4-0.1-0.6-0.1c-0.2-0.1-0.3-0.1-0.5-0.1
			c-0.5-0.2-0.8-0.3-1.3-0.4c-1.3-0.4-2-0.6-3.3-1.1c-0.8-0.2-1.2-0.4-2-0.6c-2-0.6-2.9-0.9-4.9-1.5c-0.2-0.1-0.5-0.2-0.8-0.2
			c-0.2,0-0.4-0.1-0.6-0.1c-1.5-0.4-2.3-0.7-3.8-1.1c-0.2-0.1-0.5-0.1-0.8-0.2c-0.1,0-0.3,0-0.3,0c-0.3,0-0.8-0.3-1.2-0.3
			c-0.1,0-0.3,0-0.4-0.1c-0.7-0.2-1.1-0.3-1.9-0.5c-0.6-0.2-1-0.3-1.6-0.4c-0.3-0.1-0.6-0.2-0.9-0.2c-0.2,0-0.4,0-0.6-0.1
			c-0.3-0.1-0.6-0.2-0.9-0.2c-0.2,0-0.3-0.1-0.4-0.1c-0.7-0.2-1-0.3-1.7-0.4C267.5,65.1,267.2,65.1,266.9,65z"/>
		<path id="XMLID_34_" d="M318.2,80.7c-0.2-0.1-0.3-0.1-0.5-0.2c-0.1,0-0.2-0.1-0.3-0.2c-0.1,0-0.1-0.1-0.2-0.1
			c-0.3-0.1-0.4-0.2-0.6-0.3c-0.4-0.2-0.9-0.4-1.3-0.7c-0.2-0.1-0.3-0.3-0.4-0.5c-0.2-0.4-0.1-0.8,0.3-1.2c0.2-0.2,0.4-0.3,0.7-0.4
			c0.4-0.1,0.7-0.2,1.1-0.3c0,0,0.1,0,0.1,0c0.3-0.2,0.7-0.3,1-0.5c0.2-0.2,0.4-0.3,0.6-0.6c0.3-0.4,0.6-0.8,0.8-1.3
			c0.1-0.4,0.2-0.5,0.4-0.9c0.1-0.2,0.1-0.3,0.2-0.5c0-0.1,0.1-0.3,0.1-0.4c0.4-1,0.6-1.5,1-2.5c0.1-0.2,0.1-0.3,0.2-0.5
			c0-0.1,0-0.1,0-0.1c0.2-0.5,0.5-1.1,0.7-1.6c0.2-0.5,0.3-0.7,0.5-1.2c0.1-0.2,0.1-0.3,0.2-0.4c0-0.1,0.1-0.2,0.1-0.3
			c0.2-0.6,0.4-0.9,0.6-1.5c0-0.1,0-0.1,0.1-0.2c0.1-0.4,0.3-0.8,0.4-1.1c0-0.1,0.1-0.3,0.2-0.3c0.1-0.3,0.2-0.4,0.3-0.6
			c0.1-0.2,0.1-0.3,0.1-0.4c0.3-0.7,0.4-1,0.7-1.6c0.1-0.2,0.2-0.4,0.3-0.7c0.1-0.3,0.2-0.4,0.3-0.6c0.1-0.2,0.1-0.3,0.2-0.5
			c0-0.1,0.1-0.1,0.1-0.2c0.3-0.8,0.5-1.2,0.8-2.1c0-0.1,0.1-0.2,0.1-0.3c0-0.1,0-0.2,0.1-0.3c0.1-0.2,0.1-0.3,0.2-0.5
			c0-0.1,0-0.1,0-0.2c0.1-0.3,0.3-0.7,0.4-1.1c0.2-0.4,0.2-0.6,0.4-1c0.1-0.2,0.1-0.3,0.2-0.5c0-0.1,0-0.2,0.1-0.3
			c0.5-1.1,0.7-1.7,1.2-2.8c0.1-0.2,0.1-0.3,0.2-0.4c0-0.1,0-0.2,0.1-0.3c0.8-2.1,1.3-3.1,2.1-5.2c0.1-0.4,0.3-0.7,0.3-1.1
			c0.1-0.5,0-0.9-0.2-1.4c-0.2-0.4-0.4-0.8-0.6-1.2c-0.2-0.3-0.3-0.7-0.4-1c0-0.2,0-0.3-0.1-0.5c0-0.4,0.2-0.8,0.6-0.8
			c0.2-0.1,0.4-0.1,0.6-0.1c0.2,0,0.5,0.1,0.7,0.2c0.3,0.1,0.7,0.1,1.1,0.2c0.2,0.1,0.4,0.2,0.6,0.2c0.1,0,0.1,0,0.2,0.1
			c0.3,0.1,0.6,0.2,0.9,0.3c0,0,0.1,0,0.1,0c0.8,0.3,1.7,0.6,2.4,0.9c0.5,0.2,1,0.4,1.6,0.6c0,0,0.1,0,0.1,0c0.9,0.3,1.7,0.6,2.5,1
			c0.8,0.4,1.5,0.7,2.3,1.1c1.1,0.5,1.7,0.7,2.8,1.3c0.2,0.1,0.3,0.1,0.4,0.1c0.1,0.1,0.2,0.1,0.3,0.1c1.4,0.6,2,0.9,3.4,1.6
			c0.1,0.1,0.2,0.1,0.4,0.2c0,0.1,0.1,0.1,0.2,0.2c0.8,0.4,1.2,0.6,2.1,1c0.2,0.1,0.4,0.2,0.7,0.3c0.1,0,0.1,0.1,0.2,0.1
			c0.3,0.1,0.5,0.2,0.7,0.3c0.3,0.1,0.8,0.4,1.2,0.6c0,0,0.1,0,0.1,0c0.5,0.2,1,0.6,1.5,0.8c0.1,0.1,0.2,0.1,0.4,0.2
			c0,0.1,0.1,0.1,0.1,0.1c0.6,0.3,1.2,0.7,1.8,0.9c0.4,0.2,0.7,0.4,1.1,0.6c0,0,0,0,0.1,0c0.5,0.4,1,0.7,1.5,1.1
			c0.1,0.1,0.2,0.1,0.3,0.2c0.4,0.3,0.7,0.6,1.1,0.8c0.2,0.1,0.4,0.3,0.6,0.4c0.1,0.1,0.3,0.3,0.5,0.4c0,0.1,0.1,0.1,0.2,0.2
			c0.1,0.1,0.2,0.2,0.3,0.3c0.3,0.3,0.5,0.5,0.6,0.8c0.3,0.4,0.6,0.9,0.9,1.3c0.3,0.6,0.6,1.1,0.9,1.7c0.2,0.5,0.5,1.1,0.6,1.6
			c0.1,0.4,0.1,1,0.2,1.5c0,0.2,0,0.4,0,0.6c0,0.5,0,0.8,0,1.4c-0.1,0.8-0.2,1.6-0.5,2.4c0,0.2-0.1,0.4-0.1,0.5
			c-0.2,0.4-0.4,0.9-0.5,1.4c-0.1,0.2-0.2,0.5-0.3,0.7c-0.1,0.2-0.1,0.4-0.3,0.6c-0.1,0.1-0.1,0.2-0.1,0.3c-0.1,0.2-0.2,0.3-0.3,0.5
			c0,0.1,0,0.1,0,0.1c-0.4,0.7-0.5,1-0.9,1.6c-0.2,0.3-0.4,0.6-0.6,0.8c-0.1,0.1-0.1,0.2-0.2,0.3c-0.3,0.4-0.6,0.7-0.9,1.1
			c-0.2,0.2-0.3,0.3-0.5,0.5c-0.4,0.3-0.7,0.7-1.1,1c-0.2,0.1-0.4,0.3-0.6,0.5c-0.5,0.4-1,0.7-1.5,0.9c-0.5,0.2-1.1,0.5-1.7,0.7
			c-0.3,0.1-0.6,0.2-1,0.3c-0.2,0.1-0.3,0.1-0.4,0.1c-0.3,0.1-0.6,0.2-1,0.2c-0.6,0.1-1.2,0.2-1.8,0.1c-0.5,0-1.1-0.1-1.6-0.1
			c-0.5,0-1-0.1-1.4,0c-0.4,0.1-0.8,0.3-1.2,0.6c-0.2,0.2-0.3,0.4-0.3,0.6c-0.1,0.4-0.1,0.8-0.2,1.3c-0.1,0.7,0,1.3-0.1,2
			c0,0.2,0,0.3,0,0.5c0,0.8,0,1.7,0,2.5c0,0.4,0,0.8,0,1.1c-0.1,0.2,0,0.4,0,0.6c0,0.3,0,0.5-0.1,0.8c0,0.6,0,0.9,0,1.5
			c0,0.4,0,0.9,0.1,1.3c0,0.4,0.1,0.9,0.2,1.3c0,0.1,0,0.3,0.1,0.4c0.1,0.4,0.2,0.8,0.4,1.1c0.2,0.5,0.3,0.7,0.5,1.2
			c0.1,0.2,0.1,0.5,0.2,0.7c0,0.2,0,0.4-0.1,0.6c-0.1,0.2-0.3,0.5-0.6,0.6c-0.2,0.1-0.5,0-0.8,0c-0.2-0.1-0.5-0.2-0.8-0.3
			c-0.5-0.2-1-0.5-1.5-0.8c-0.3-0.2-0.5-0.2-0.8-0.4c-0.2-0.1-0.3-0.2-0.6-0.3c-0.2-0.1-0.4-0.2-0.6-0.3c-0.2-0.1-0.3-0.1-0.4-0.2
			c-0.2,0-0.3-0.1-0.5-0.2c-0.2-0.1-0.3-0.2-0.5-0.3c-0.2-0.1-0.5-0.2-0.7-0.4c-0.1-0.1-0.2-0.1-0.3-0.2c-0.1-0.1-0.3-0.2-0.5-0.3
			c0,0,0,0,0,0c-0.3-0.2-0.6-0.3-0.9-0.5c-0.3-0.2-0.6-0.4-0.8-0.6c-0.2-0.1-0.3-0.1-0.4-0.2c-0.2,0-0.2-0.1-0.3-0.1
			c-0.2-0.1-0.4-0.2-0.6-0.2c-0.1,0-0.1-0.1-0.2-0.1c-0.7-0.3-1-0.5-1.7-0.8c-0.1,0-0.2-0.1-0.3-0.2c-0.1-0.1-0.2-0.2-0.3-0.2
			c-0.4-0.3-0.7-0.6-0.8-1.1c-0.1-0.2,0-0.4,0.1-0.6c0.1-0.2,0.3-0.4,0.4-0.6c0.2-0.2,0.3-0.3,0.6-0.5c0.2-0.2,0.4-0.3,0.5-0.6
			c0.1-0.2,0.2-0.5,0.3-0.7c0.1-0.3,0.2-0.7,0.2-1c0-0.5,0-1,0-1.6c0-0.3,0-0.6,0-0.9c0-0.6,0-1.2,0-1.8c0-0.6,0-1.2-0.1-1.9
			c0-0.5-0.1-1.1,0-1.6c0-0.1,0-0.1,0-0.1c0-0.6-0.1-1.2-0.1-1.9c0-0.7-0.1-1-0.1-1.7c-0.1-0.7-0.5-1.4-1-1.8
			c-0.3-0.2-0.7-0.4-1-0.5c-0.2-0.1-0.5-0.1-0.7-0.1c-0.3,0-0.6,0.1-0.8,0.2c-0.2,0.1-0.5,0.4-0.7,0.7c-0.3,0.5-0.7,1.1-0.9,1.7
			c-0.2,0.5-0.3,0.7-0.5,1.1c-0.1,0.3-0.2,0.6-0.3,0.9c-0.1,0.2-0.2,0.3-0.3,0.5c-0.1,0.3-0.2,0.5-0.4,0.8c-0.1,0.2-0.2,0.4-0.3,0.6
			c-0.1,0.1-0.1,0.1-0.2,0.2c-0.2,0.4-0.3,0.6-0.4,0.9c0,0.1-0.1,0.3-0.1,0.4c-0.1,0.3-0.2,0.4-0.3,0.7c-0.1,0.3-0.2,0.6-0.3,0.8
			c-0.1,0.2,0,0.6-0.1,0.9c0,0.6,0.2,1.2,0.4,1.7c0.2,0.3,0.3,0.7,0.4,1.1c0,0.1,0.1,0.3,0.1,0.6c-0.1,0.5-0.4,0.9-1,0.9
			c-0.3,0-0.7-0.1-1-0.2c-0.3-0.1-0.5-0.1-0.8-0.2c-0.1,0-0.1,0-0.1-0.1c-0.2-0.1-0.6-0.3-0.8-0.3c0,0-0.2,0-0.2,0
			c-0.5-0.2-0.8-0.3-1.3-0.6c-0.5-0.3-1.1-0.5-1.6-0.8c-0.1-0.1-0.3-0.1-0.4-0.1c0,0-0.1,0-0.1,0c-0.4-0.2-0.7-0.3-1.2-0.4
			c-0.1,0-0.2-0.1-0.3-0.1c-0.3-0.1-0.7-0.2-1.1-0.3c-0.4-0.1-0.7-0.3-1.1-0.4c-0.2-0.1-0.4-0.1-0.6-0.3c-0.1,0-0.1,0-0.2-0.1
			C318.8,81,318.5,80.9,318.2,80.7z M345.9,60.4c0.4,0.2,0.8,0.3,1.2,0.5c0,0,0,0,0.1,0c0.4,0.2,0.6,0.3,1,0.5
			c0.2,0.2,0.4,0.3,0.6,0.4c0.3,0.1,0.6,0.2,0.9,0.4c0.1,0.1,0.2,0.1,0.4,0.1c0.1,0.1,0.2,0.1,0.3,0.2c0.1,0.1,0.3,0.1,0.5,0.2
			c0.2,0.1,0.4,0.1,0.6,0.2c0.3,0.2,0.7,0.3,1.1,0.3c0.3,0.1,0.6,0,1-0.1c0.5-0.2,0.8-1,0.7-1.4c-0.1-0.4-0.3-0.7-0.6-0.9
			c-0.3-0.2-0.6-0.4-0.9-0.6c-0.5-0.2-0.7-0.3-1.2-0.6c-0.4-0.2-0.8-0.4-1.2-0.6c0,0-0.1,0-0.1,0c-0.3-0.2-0.6-0.3-0.9-0.5
			c-0.2-0.1-0.4-0.2-0.6-0.3c-0.4-0.1-0.8-0.3-1.1-0.5c-0.1,0-0.1-0.1-0.2-0.1c-0.1-0.1-0.2-0.2-0.4-0.2c-0.3-0.1-0.4-0.2-0.7-0.3
			c-0.2-0.1-0.4-0.3-0.6-0.4c-0.3-0.1-0.4-0.2-0.7-0.3c-0.2-0.1-0.3-0.2-0.5-0.3c-0.4-0.2-0.9-0.4-1.3-0.5c-0.1-0.1-0.3-0.1-0.5-0.1
			c-0.2-0.1-0.4-0.1-0.6-0.1c-0.5,0-1,0.2-1.3,0.7c-0.2,0.3-0.3,0.6-0.1,1c0,0.1,0,0.1,0.1,0.2c0.1,0.2,0.3,0.5,0.5,0.7
			c0.4,0.3,0.8,0.6,1.3,0.8c0.4,0.2,0.9,0.5,1.3,0.7c0,0,0,0,0,0c0.1,0.1,0.3,0.2,0.4,0.2C344.8,59.9,345.2,60.1,345.9,60.4z"/>
	</g>
	<g id="XMLID_15_">
	</g>
</g>
<g id="XMLID_10_">
	<path id="XMLID_124_" d="M159.3,102.4v1.6h-6.8v-8.8h6.6v1.6h-4.6v1.9h4.1v1.6h-4.1v2H159.3z"/>
	<path id="XMLID_126_" d="M164.3,103.9c-0.6-0.2-1.2-0.4-1.6-0.7l0.7-1.5c0.4,0.3,0.8,0.5,1.3,0.7s1,0.3,1.6,0.3
		c0.6,0,1-0.1,1.3-0.3s0.4-0.4,0.4-0.7c0-0.2-0.1-0.4-0.2-0.5s-0.4-0.2-0.6-0.3c-0.3-0.1-0.6-0.2-1-0.3c-0.7-0.2-1.2-0.3-1.6-0.5
		c-0.4-0.2-0.8-0.4-1.1-0.8c-0.3-0.4-0.5-0.8-0.5-1.4c0-0.5,0.1-1,0.4-1.4c0.3-0.4,0.7-0.7,1.2-1s1.2-0.4,2-0.4
		c0.6,0,1.1,0.1,1.6,0.2s1,0.3,1.4,0.6l-0.6,1.5c-0.8-0.5-1.6-0.7-2.4-0.7c-0.6,0-1,0.1-1.3,0.3c-0.3,0.2-0.4,0.4-0.4,0.7
		s0.2,0.5,0.5,0.7c0.3,0.1,0.8,0.3,1.4,0.4c0.7,0.2,1.2,0.3,1.6,0.5c0.4,0.2,0.8,0.4,1.1,0.8s0.5,0.8,0.5,1.4c0,0.5-0.1,1-0.4,1.4
		s-0.7,0.7-1.3,1c-0.6,0.2-1.2,0.4-2,0.4C165.7,104.2,165,104.1,164.3,103.9z"/>
	<path id="XMLID_128_" d="M175.7,96.9h-2.8v-1.7h7.7v1.7h-2.8v7.1h-2V96.9z"/>
	<path id="XMLID_130_" d="M196.2,102.4v1.7h-6.6v-1.3l3.4-3.2c0.4-0.3,0.6-0.6,0.7-0.9c0.1-0.2,0.2-0.5,0.2-0.7
		c0-0.4-0.1-0.6-0.4-0.8c-0.2-0.2-0.6-0.3-1-0.3c-0.4,0-0.7,0.1-1,0.2c-0.3,0.1-0.6,0.4-0.8,0.7l-1.5-1c0.3-0.5,0.8-0.9,1.4-1.2
		c0.6-0.3,1.3-0.4,2.1-0.4c0.7,0,1.2,0.1,1.7,0.3s0.9,0.5,1.1,0.9c0.3,0.4,0.4,0.8,0.4,1.4c0,0.5-0.1,0.9-0.3,1.3
		c-0.2,0.4-0.6,0.9-1.2,1.4l-2,1.9H196.2z"/>
	<path id="XMLID_132_" d="M201.3,103.7c-0.6-0.4-1-0.9-1.3-1.6c-0.3-0.7-0.5-1.5-0.5-2.4s0.2-1.8,0.5-2.4c0.3-0.7,0.8-1.2,1.3-1.6
		s1.2-0.5,1.9-0.5c0.7,0,1.4,0.2,1.9,0.5s1,0.9,1.3,1.6c0.3,0.7,0.5,1.5,0.5,2.4s-0.2,1.8-0.5,2.4c-0.3,0.7-0.8,1.2-1.3,1.6
		c-0.6,0.4-1.2,0.5-1.9,0.5C202.6,104.2,201.9,104,201.3,103.7z M204.5,101.8c0.3-0.5,0.5-1.2,0.5-2.1s-0.2-1.7-0.5-2.1
		c-0.3-0.5-0.7-0.7-1.3-0.7c-0.5,0-0.9,0.2-1.2,0.7c-0.3,0.5-0.5,1.2-0.5,2.1s0.2,1.7,0.5,2.1c0.3,0.5,0.7,0.7,1.2,0.7
		C203.8,102.5,204.2,102.3,204.5,101.8z"/>
	<path id="XMLID_135_" d="M213.9,95.3v8.8h-2v-7.2h-1.8v-1.6H213.9z"/>
	<path id="XMLID_137_" d="M223.9,96.3c0.7,0.7,1,1.8,1,3.2c0,1-0.2,1.8-0.6,2.6s-0.9,1.3-1.6,1.6c-0.7,0.4-1.5,0.6-2.3,0.6
		c-0.5,0-0.9-0.1-1.3-0.2c-0.4-0.1-0.8-0.3-1.1-0.4l0.8-1.5c0.4,0.3,1,0.4,1.6,0.4c0.7,0,1.3-0.2,1.8-0.7c0.4-0.4,0.7-1.1,0.7-1.9
		c-0.5,0.5-1.3,0.8-2.2,0.8c-0.6,0-1.1-0.1-1.5-0.3c-0.5-0.2-0.8-0.5-1.1-1s-0.4-0.9-0.4-1.4c0-0.6,0.1-1.1,0.4-1.5
		c0.3-0.4,0.7-0.8,1.2-1c0.5-0.2,1.1-0.4,1.7-0.4C222.2,95.1,223.2,95.5,223.9,96.3z M222.2,98.9c0.3-0.2,0.4-0.6,0.4-0.9
		s-0.1-0.7-0.4-0.9c-0.3-0.2-0.6-0.4-1.1-0.4c-0.4,0-0.8,0.1-1.1,0.4c-0.3,0.2-0.4,0.6-0.4,1c0,0.4,0.1,0.7,0.4,1
		c0.3,0.2,0.6,0.4,1.1,0.4C221.6,99.3,221.9,99.1,222.2,98.9z"/>
</g>
<line id="XMLID_7_" class="st0" x1="151.2" y1="111.2" x2="224.2" y2="111.2"/>
<g id="XMLID_56_">
	<path id="XMLID_57_" d="M107.8,136.3c0,1.2-0.4,1.8-1.3,2.2c1.1,0.5,1.8,1.2,1.8,2.6c0,2-1.6,3.2-3.8,3.2h-3.3v-10.8h3.3
		C106.8,133.6,107.8,134.5,107.8,136.3z M102.4,138h2.1c1.3,0,2.1-0.5,2.1-1.7c0-1.1-0.8-1.6-2.1-1.6h-2.1V138z M102.4,143.2h2.5
		c1.3,0,2.2-0.9,2.2-2c0-1.1-0.9-2-2.2-2h-2.5V143.2z"/>
	<path id="XMLID_61_" d="M120.4,143.3l-0.4,1.1h-6.2v-10.8h6.6l-0.4,1.1h-5v3.8h4.5l-0.4,1H115v3.8H120.4z"/>
	<path id="XMLID_63_" d="M131.4,141.9h-4.8l-1,2.4h-1.2l4.6-10.9l4.6,10.9h-1.2L131.4,141.9z M129,136.2l-2,4.7h3.9L129,136.2z"/>
	<path id="XMLID_66_" d="M145.7,136.6c0,1.8-1,2.6-2.3,2.9l2.9,4.3l-0.9,0.7l-3.3-4.9c-0.1,0-0.2,0-0.3,0h-2v4.7h-1.2v-10.7h3.2
		C143.9,133.6,145.7,134.2,145.7,136.6z M139.9,138.5h2c1.5,0,2.6-0.4,2.6-1.9c0-1.5-1.2-1.9-2.6-1.9h-2V138.5z"/>
	<path id="XMLID_69_" d="M160.1,138.9c0.2,3.1-2.1,5.4-5.4,5.4h-3.3v-10.8h3.3C158,133.6,160.3,135.7,160.1,138.9z M152.6,143.3h2.2
		c2.7,0,4.4-2.2,4.2-4.3c0.1-2.4-1.5-4.3-4.2-4.3h-2.2V143.3z"/>
	<path id="XMLID_72_" d="M179.2,136.9c0,2.2-1.4,3.3-3.9,3.3h-1.7v4.1h-1.2v-10.7h2.9C177.7,133.6,179.2,134.8,179.2,136.9z
		 M173.6,139.2h1.7c1.7,0,2.7-0.8,2.7-2.2c0-1.4-1-2.2-2.7-2.2h-1.7V139.2z"/>
	<path id="XMLID_75_" d="M191.3,136.6c0,1.8-1,2.6-2.3,2.9l2.9,4.3l-0.9,0.7l-3.3-4.9c-0.1,0-0.2,0-0.3,0h-2v4.7h-1.2v-10.7h3.2
		C189.5,133.6,191.3,134.2,191.3,136.6z M185.5,138.5h2c1.5,0,2.6-0.4,2.6-1.9c0-1.5-1.2-1.9-2.6-1.9h-2V138.5z"/>
	<path id="XMLID_78_" d="M196.5,139c0-3.1,2.5-5.6,5.6-5.6c3.1,0,5.6,2.5,5.6,5.6s-2.5,5.6-5.6,5.6C199,144.6,196.5,142.1,196.5,139
		z M206.5,139c0-2.5-1.9-4.5-4.4-4.5s-4.4,2.1-4.4,4.5c0,2.5,1.9,4.5,4.4,4.5S206.5,141.4,206.5,139z"/>
	<path id="XMLID_81_" d="M222,138.9c0.2,3.1-2.1,5.4-5.4,5.4h-3.3v-10.8h3.3C219.9,133.6,222.1,135.7,222,138.9z M214.5,143.3h2.2
		c2.7,0,4.4-2.2,4.2-4.3c0.1-2.4-1.5-4.3-4.2-4.3h-2.2V143.3z"/>
	<path id="XMLID_84_" d="M227.5,133.8l1.2-0.4v6.5c0,1.6,0.4,3.7,3,3.7c2.6,0,2.9-2.1,2.9-3.7v-6.1l1.2-0.4v6.5
		c0,2.5-0.7,4.7-4.1,4.7s-4.2-2.2-4.2-4.7V133.8z"/>
	<path id="XMLID_86_" d="M247,144.6c-3.1,0-5.6-2.5-5.6-5.6s2.5-5.6,5.6-5.6c0,0,1.7-0.1,3.3,1v1.5c0,0-1.2-1.5-3.3-1.5
		c-2.5,0-4.4,2.1-4.4,4.5c0,2.5,1.9,4.5,4.4,4.5c2,0,3.1-1.3,3.2-1.5v1.5C248.7,144.6,247,144.6,247,144.6z"/>
	<path id="XMLID_88_" d="M259.9,134.7v9.7h-1.2v-9.7H255l0.4-1.1h8.2l-0.4,1.1H259.9z"/>
	<path id="XMLID_90_" d="M272.1,138.2c1.4,0.5,3.5,1.2,3.5,3.2c0,2.1-1.3,3.1-3.9,3.1c-1.6,0-2.7-0.6-3.4-1.2V142
		c0.7,0.6,2.3,1.4,3.4,1.4c2,0,2.7-0.8,2.7-2c0-1.2-1.5-1.6-2.8-2.1c-1.2-0.4-3.2-1.2-3.2-3c0-2.1,1.7-2.9,3.4-2.9
		c1.6,0,2.6,0.5,3.1,1v1.3c-0.5-0.6-1.6-1.2-3.1-1.2c-1.4,0-2.2,0.5-2.2,1.8C269.5,137.3,270.9,137.8,272.1,138.2z"/>
</g>
<g id="XMLID_8_">
	<path id="XMLID_92_" d="M139.3,156.7l0.7-0.2v6.5h-0.7v-2.9h-3.8v2.9h-0.7v-6.3l0.7-0.2v3h3.8V156.7z"/>
	<path id="XMLID_94_" d="M147.2,161.6h-2.9l-0.6,1.4H143l2.8-6.5l2.8,6.5h-0.7L147.2,161.6z M145.8,158.1l-1.2,2.8h2.4L145.8,158.1z
		"/>
	<path id="XMLID_97_" d="M152.3,158.2v4.8h-0.7v-6.5l4.7,5v-4.7l0.7-0.2v6.6L152.3,158.2z"/>
	<path id="XMLID_99_" d="M165.8,159.8c0.1,1.9-1.3,3.2-3.2,3.2h-2v-6.5h2C164.6,156.5,165.9,157.8,165.8,159.8z M161.3,162.4h1.3
		c1.6,0,2.6-1.3,2.5-2.6c0.1-1.5-0.9-2.6-2.5-2.6h-1.3V162.4z"/>
	<path id="XMLID_102_" d="M175.1,156.5l1.3,6.5h-0.7l-0.8-4.6l-2.2,4.4l-2.2-4.4l-0.9,4.6h-0.7l1.3-6.5l2.5,4.8L175.1,156.5z"/>
	<path id="XMLID_104_" d="M183.3,161.6h-2.9l-0.6,1.4h-0.7l2.8-6.5l2.8,6.5h-0.7L183.3,161.6z M181.9,158.1l-1.2,2.8h2.4
		L181.9,158.1z"/>
	<path id="XMLID_107_" d="M192.9,159.8c0.1,1.9-1.3,3.2-3.2,3.2h-2v-6.5h2C191.7,156.5,193,157.8,192.9,159.8z M188.4,162.4h1.3
		c1.6,0,2.6-1.3,2.5-2.6c0.1-1.5-0.9-2.6-2.5-2.6h-1.3V162.4z"/>
	<path id="XMLID_110_" d="M200.2,162.4L200,163h-3.7v-6.5h3.9l-0.2,0.6h-3v2.3h2.7l-0.2,0.6H197v2.3H200.2z"/>
	<path id="XMLID_112_" d="M207.2,156.7l0.7-0.2v6.5h-0.7V156.7z"/>
	<path id="XMLID_114_" d="M212.2,158.2v4.8h-0.7v-6.5l4.7,5v-4.7l0.7-0.2v6.6L212.2,158.2z"/>
	<path id="XMLID_116_" d="M228.8,158.4c0,1.1-0.6,1.5-1.4,1.7l1.8,2.6l-0.5,0.4l-2-2.9c0,0-0.1,0-0.2,0h-1.2v2.8h-0.7v-6.4h1.9
		C227.7,156.6,228.8,156.9,228.8,158.4z M225.3,159.5h1.2c0.9,0,1.6-0.3,1.6-1.2c0-0.9-0.7-1.2-1.6-1.2h-1.2V159.5z"/>
	<path id="XMLID_119_" d="M232.2,156.7l0.7-0.2v6.5h-0.7V156.7z"/>
	<path id="XMLID_121_" d="M236.2,159.8c0-1.9,1.5-3.4,3.4-3.4c1.8,0,3.4,1.5,3.4,3.4s-1.5,3.4-3.4,3.4
		C237.7,163.1,236.2,161.6,236.2,159.8z M242.3,159.8c0-1.5-1.2-2.7-2.6-2.7c-1.5,0-2.6,1.2-2.6,2.7c0,1.5,1.2,2.7,2.6,2.7
		C241.1,162.5,242.3,161.3,242.3,159.8z"/>
</g>
</svg>
